<svg xmlns="http://www.w3.org/2000/svg"  viewBox="0 0 50 50" width="50px" height="50px"><path d="M 24.523438 0.68554688 A 1.0001 1.0001 0 0 0 24 0.81835938 L 3.5 12.654297 A 1.0001 1.0001 0 0 0 3 13.521484 L 3 37.191406 A 1.0001 1.0001 0 0 0 3.5 38.058594 L 24 49.894531 A 1.0001 1.0001 0 0 0 25 49.894531 L 45.5 38.058594 A 1.0001 1.0001 0 0 0 46 37.191406 L 46 13.521484 A 1.0001 1.0001 0 0 0 45.5 12.654297 L 25 0.81835938 A 1.0001 1.0001 0 0 0 24.523438 0.68554688 z M 24.5 2.8398438 L 44 14.097656 L 44 36.615234 L 24.5 47.873047 L 5 36.615234 L 5 14.097656 L 24.5 2.8398438 z M 14.041016 13 A 1.0001 1.0001 0 0 0 13.486328 13.142578 L 10.486328 14.939453 A 1.0001 1.0001 0 0 0 10 15.798828 L 10 35.808594 A 1.0001 1.0001 0 0 0 10.519531 36.685547 L 14.519531 38.876953 A 1.0001 1.0001 0 0 0 15.599609 38.800781 L 19.599609 35.800781 A 1.0001 1.0001 0 0 0 20 35 L 20 29.832031 L 23.945312 32.369141 A 1.0001 1.0001 0 0 0 23.970703 32.384766 L 23.986328 32.394531 A 1.0001 1.0001 0 0 0 24.992188 32.408203 L 25.007812 32.400391 A 1.0001 1.0001 0 0 0 25.058594 32.369141 L 29 29.833984 L 29 35 A 1.0001 1.0001 0 0 0 29.400391 35.800781 L 33.400391 38.800781 A 1.0001 1.0001 0 0 0 34.480469 38.876953 L 38.480469 36.685547 A 1.0001 1.0001 0 0 0 39 35.808594 L 39 15.798828 A 1.0001 1.0001 0 0 0 38.513672 14.939453 L 35.513672 13.142578 A 1.0001 1.0001 0 0 0 34.486328 13.142578 L 29.505859 16.130859 A 1.0001 1.0001 0 0 0 29.486328 16.142578 A 1.0001 1.0001 0 0 0 29.482422 16.144531 L 24.5 19.150391 L 19.554688 16.167969 A 1.0001 1.0001 0 0 0 19.515625 16.144531 A 1.0001 1.0001 0 0 0 19.513672 16.142578 L 14.513672 13.142578 A 1.0001 1.0001 0 0 0 14.041016 13 z M 14 15.166016 L 18 17.566406 L 18 28 L 18 34.5 L 14.916016 36.8125 L 12 35.216797 L 12 16.365234 L 14 15.166016 z M 35 15.166016 L 37 16.365234 L 37 35.216797 L 34.083984 36.8125 L 31 34.5 L 31 28 L 31 17.566406 L 35 15.166016 z M 20 18.769531 L 23.984375 21.175781 A 1.0001 1.0001 0 0 0 25.017578 21.175781 L 29 18.771484 L 29 27.455078 L 24.501953 30.349609 L 20 27.455078 L 20 18.769531 z"/></svg>